<mxfile host="app.diagrams.net" modified="2021-08-19T06:50:59.871Z" agent="5.0 (Macintosh)" etag="i5jXLPePw9qrcQ8GGB--" version="14.9.8" type="github">
  <diagram name="Page-1" id="b5b7bab2-c9e2-2cf4-8b2a-24fd1a2a6d21">
    <mxGraphModel dx="1186" dy="790" grid="1" gridSize="10" guides="1" tooltips="1" connect="1" arrows="1" fold="1" page="1" pageScale="1" pageWidth="827" pageHeight="1169" background="none" math="0" shadow="0">
      <root>
        <mxCell id="0" />
        <mxCell id="1" parent="0" />
        <mxCell id="Rek6x4QmJrhdKCj9iVsL-1" value="Citizen" style="shape=umlActor;verticalLabelPosition=bottom;verticalAlign=top;html=1;outlineConnect=0;" vertex="1" parent="1">
          <mxGeometry x="120" y="300" width="30" height="60" as="geometry" />
        </mxCell>
        <mxCell id="Rek6x4QmJrhdKCj9iVsL-2" value="Web Interface" style="ellipse;whiteSpace=wrap;html=1;" vertex="1" parent="1">
          <mxGeometry x="230" y="305" width="120" height="50" as="geometry" />
        </mxCell>
        <mxCell id="Rek6x4QmJrhdKCj9iVsL-5" value="" style="endArrow=classic;html=1;entryX=0;entryY=0.5;entryDx=0;entryDy=0;" edge="1" parent="1" target="Rek6x4QmJrhdKCj9iVsL-2">
          <mxGeometry width="50" height="50" relative="1" as="geometry">
            <mxPoint x="150" y="330" as="sourcePoint" />
            <mxPoint x="200" y="280" as="targetPoint" />
          </mxGeometry>
        </mxCell>
        <mxCell id="Rek6x4QmJrhdKCj9iVsL-6" value="&amp;lt;&amp;lt;uses&amp;gt;&amp;gt;" style="text;html=1;strokeColor=none;fillColor=none;align=center;verticalAlign=middle;whiteSpace=wrap;rounded=0;" vertex="1" parent="1">
          <mxGeometry x="170" y="305" width="40" height="20" as="geometry" />
        </mxCell>
        <mxCell id="Rek6x4QmJrhdKCj9iVsL-7" value="jhu" style="ellipse;whiteSpace=wrap;html=1;" vertex="1" parent="1">
          <mxGeometry x="570" y="305" width="120" height="50" as="geometry" />
        </mxCell>
        <mxCell id="Rek6x4QmJrhdKCj9iVsL-8" value="&amp;lt;&amp;lt;gets Coronavirus data from&amp;gt;&amp;gt;" style="text;html=1;strokeColor=none;fillColor=none;align=center;verticalAlign=middle;whiteSpace=wrap;rounded=0;" vertex="1" parent="1">
          <mxGeometry x="360" y="310" width="200" height="15" as="geometry" />
        </mxCell>
        <mxCell id="Rek6x4QmJrhdKCj9iVsL-10" value="" style="endArrow=classic;html=1;entryX=0;entryY=0.5;entryDx=0;entryDy=0;" edge="1" parent="1" target="Rek6x4QmJrhdKCj9iVsL-7">
          <mxGeometry width="50" height="50" relative="1" as="geometry">
            <mxPoint x="350" y="329.5" as="sourcePoint" />
            <mxPoint x="430" y="329.5" as="targetPoint" />
          </mxGeometry>
        </mxCell>
        <mxCell id="Rek6x4QmJrhdKCj9iVsL-13" value="csbs" style="ellipse;whiteSpace=wrap;html=1;" vertex="1" parent="1">
          <mxGeometry x="570" y="230" width="120" height="50" as="geometry" />
        </mxCell>
        <mxCell id="Rek6x4QmJrhdKCj9iVsL-14" value="nyt" style="ellipse;whiteSpace=wrap;html=1;" vertex="1" parent="1">
          <mxGeometry x="570" y="380" width="120" height="50" as="geometry" />
        </mxCell>
      </root>
    </mxGraphModel>
  </diagram>
</mxfile>
